<svg version="1.1" viewBox="0.0 0.0 179.48031496062993 146.1968503937008" fill="none" stroke="none" stroke-linecap="square" stroke-miterlimit="10" xmlns:xlink="http://www.w3.org/1999/xlink" xmlns="http://www.w3.org/2000/svg"><clipPath id="p.0"><path d="m0 0l179.48032 0l0 146.19685l-179.48032 0l0 -146.19685z" clip-rule="nonzero"/></clipPath><g clip-path="url(#p.0)"><path fill="#000000" fill-opacity="0.0" d="m0 0l179.48032 0l0 146.19685l-179.48032 0z" fill-rule="evenodd"/><path fill="#000000" fill-opacity="0.0" d="m-10.934573 -14.419881l111.81102 0l0 49.10236l-111.81102 0z" fill-rule="evenodd"/><path fill="#666666" d="m5.7635846 18.890902l2.4687505 0l4.96875 -12.687499l-2.90625 0l-3.1093755 9.203125l-0.1875 0.84374905l-0.1875 -0.84374905l-3.1406248 -9.203125l-2.90625 0l5.0 12.687499z" fill-rule="nonzero"/><path fill="#434343" d="m24.353428 18.890902l0 -18.0l-0.1875 0l-7.828125 2.828125l0 3.0000002l4.546875 -1.640625l0 13.812499l3.46875 0z" fill-rule="nonzero"/><path fill="#666666" d="m34.9809 17.109652q0 0.859375 0.5625 1.453125q0.5625 0.578125 1.578125 0.578125q1.0 0 1.578125 -0.578125q0.578125 -0.59375 0.578125 -1.453125q0 -0.859375 -0.578125 -1.453124q-0.5625 -0.609375 -1.578125 -0.609375q-1.03125 0 -1.59375 0.609375q-0.546875 0.60937405 -0.546875 1.453124z" fill-rule="nonzero"/><path fill="#434343" d="m58.092747 18.890902l0 -2.75l-7.90625 0l3.390625 -3.593749q0.875 -0.90625 1.59375 -1.71875q0.71875 -0.828125 1.234375 -1.609375q0.5 -0.796875 0.78125 -1.609375q0.28125 -0.8125 0.28125 -1.703125q0 -1.171875 -0.375 -2.1406252q-0.359375 -0.96875 -1.078125 -1.65625q-0.703125 -0.6875 -1.765625 -1.078125q-1.0625 -0.390625 -2.421875 -0.390625q-1.4375 0 -2.625 0.46875q-1.171875 0.46875 -2.0 1.265625q-0.84375 0.8125 -1.3125 1.8750002q-0.453125 1.0625 -0.453125 2.265625l3.453125 0q0 -0.71875 0.1875 -1.28125q0.1875 -0.578125 0.546875 -0.96875q0.34375 -0.37500024 0.859375 -0.56250024q0.53125 -0.1875 1.21875 -0.1875q0.53125 0 0.96875 0.171875q0.453125 0.171875 0.765625 0.50000024q0.3125 0.328125 0.484375 0.796875q0.171875 0.46875 0.171875 1.078125q0 0.40625 -0.140625 0.84375q-0.125 0.421875 -0.40625 0.921875q-0.296875 0.5 -0.765625 1.109375q-0.46875 0.609375 -1.140625 1.34375l-5.828125 6.265624l0 2.34375l12.28125 0z" fill-rule="nonzero"/><path fill="#666666" d="m65.36085 17.109652q0 0.859375 0.5625 1.453125q0.5625 0.578125 1.578125 0.578125q1.0 0 1.578125 -0.578125q0.578125 -0.59375 0.578125 -1.453125q0 -0.859375 -0.578125 -1.453124q-0.5625 -0.609375 -1.578125 -0.609375q-1.03125 0 -1.59375 0.609375q-0.546875 0.60937405 -0.546875 1.453124z" fill-rule="nonzero"/><path fill="#434343" d="m76.878944 10.0315275l2.734375 0.671875q0.203125 -0.1875 0.421875 -0.359375q0.21875 -0.1875 0.515625 -0.328125q0.28125 -0.140625 0.640625 -0.21875q0.375 -0.09375 0.890625 -0.09375q0.75 0 1.296875 0.234375q0.5625 0.234375 0.9375 0.671875q0.375 0.4375 0.546875 1.03125q0.171875 0.59375 0.171875 1.3125q0 0.734375 -0.140625 1.375q-0.140625 0.625 -0.4375 1.078125q-0.296875 0.453125 -0.796875 0.71874905q-0.484375 0.25 -1.171875 0.25q-1.125 0 -1.859375 -0.64062405q-0.71875 -0.640625 -0.84375 -1.8125l-3.375 0q0.03125 1.25 0.546875 2.218749q0.53125 0.96875 1.375 1.640625q0.84375 0.671875 1.921875 1.015625q1.078125 0.34375 2.25 0.34375q1.53125 0 2.65625 -0.484375q1.125 -0.484375 1.859375 -1.3125q0.734375 -0.828125 1.09375 -1.906249q0.359375 -1.09375 0.359375 -2.3125q0 -1.421875 -0.375 -2.546875q-0.359375 -1.125 -1.046875 -1.890625q-0.703125 -0.78125 -1.734375 -1.1875q-1.015625 -0.421875 -2.3125 -0.421875q-0.921875 0 -1.625 0.234375q-0.703125 0.234375 -1.078125 0.453125l0.421875 -3.9531252l7.15625 0l0 -2.921875l-9.984375 0l-1.015625 9.140625z" fill-rule="nonzero"/><path fill="#000000" fill-opacity="0.0" d="m9.651583 115.368034l128.91339 0l0 39.90551l-128.91339 0z" fill-rule="evenodd"/><path fill="#434343" d="m20.635958 128.79175l1.625 0l4.125 10.265625l4.125 -10.265625l1.6250019 0l-5.125002 12.59375l-1.265625 0l-5.109375 -12.59375zm-0.515625 0l1.421875 0l0.234375 7.671875l0 4.921875l-1.65625 0l0 -12.59375zm11.109375 0l1.4218769 0l0 12.59375l-1.6562519 0l0 -4.921875l0.234375 -7.671875zm9.625551 11.0l0 -4.828125q0 -0.546875 -0.21875 -0.953125q-0.21875 -0.421875 -0.65625 -0.640625q-0.4375 -0.234375 -1.09375 -0.234375q-0.609375 0 -1.0625 0.21875q-0.453125 0.203125 -0.703125 0.546875q-0.25 0.328125 -0.25 0.71875l-1.609375 0q0 -0.5 0.25 -0.984375q0.265625 -0.5 0.75 -0.90625q0.5 -0.40625 1.1875 -0.640625q0.6875 -0.234375 1.53125 -0.234375q1.03125 0 1.8125 0.34375q0.78125 0.34375 1.21875 1.046875q0.453125 0.6875 0.453125 1.734375l0 4.359375q0 0.46875 0.078125 1.0q0.078125 0.53125 0.25 0.90625l0 0.140625l-1.671875 0q-0.125 -0.28125 -0.203125 -0.734375q-0.0625 -0.46875 -0.0625 -0.859375zm0.28125 -4.078125l0.015625 1.125l-1.609375 0q-0.6875 0 -1.234375 0.109375q-0.53125 0.109375 -0.890625 0.328125q-0.359375 0.203125 -0.5625 0.53125q-0.1875 0.328125 -0.1875 0.75q0 0.453125 0.203125 0.8125q0.203125 0.359375 0.59375 0.578125q0.40625 0.203125 1.0 0.203125q0.734375 0 1.296875 -0.296875q0.5625 -0.3125 0.890625 -0.765625q0.34375 -0.453125 0.359375 -0.875l0.6875 0.765625q-0.0625 0.359375 -0.328125 0.8125q-0.265625 0.4375 -0.71875 0.84375q-0.4375 0.390625 -1.046875 0.65625q-0.609375 0.265625 -1.375 0.265625q-0.953125 0 -1.671875 -0.375q-0.703125 -0.375 -1.109375 -1.0q-0.390625 -0.625 -0.390625 -1.40625q0 -0.75 0.296875 -1.3125q0.296875 -0.578125 0.84375 -0.96875q0.5625 -0.390625 1.34375 -0.578125q0.78125 -0.203125 1.734375 -0.203125l1.859375 0zm3.888031 -3.6875l1.609375 0l0 10.46875q0 0.859375 -0.28125 1.453125q-0.265625 0.609375 -0.8125 0.90625q-0.53125 0.3125 -1.359375 0.3125q-0.21875 0 -0.5 -0.046875q-0.296875 -0.046875 -0.5 -0.09375l0.015625 -1.296875q0.171875 0.03125 0.375 0.046875q0.203125 0.03125 0.359375 0.03125q0.359375 0 0.59375 -0.140625q0.25 -0.125 0.375 -0.40625q0.125 -0.28125 0.125 -0.765625l0 -10.46875zm-0.171875 -2.484375q0 -0.390625 0.234375 -0.65625q0.25 -0.265625 0.71875 -0.265625q0.46875 0 0.703125 0.265625q0.25 0.265625 0.25 0.65625q0 0.375 -0.25 0.640625q-0.234375 0.265625 -0.703125 0.265625q-0.46875 0 -0.71875 -0.265625q-0.234375 -0.265625 -0.234375 -0.640625zm3.9424744 7.265625l0 -0.203125q0 -1.0 0.296875 -1.875q0.296875 -0.875 0.84375 -1.515625q0.546875 -0.640625 1.328125 -1.0q0.796875 -0.359375 1.78125 -0.359375q0.984375 0 1.765625 0.359375q0.796875 0.359375 1.359375 1.0q0.5625 0.640625 0.84375 1.515625q0.296875 0.875 0.296875 1.875l0 0.203125q0 1.015625 -0.296875 1.890625q-0.28125 0.859375 -0.84375 1.5q-0.5625 0.640625 -1.34375 1.0q-0.78125 0.359375 -1.765625 0.359375q-0.984375 0 -1.78125 -0.359375q-0.78125 -0.359375 -1.34375 -1.0q-0.546875 -0.640625 -0.84375 -1.5q-0.296875 -0.875 -0.296875 -1.890625zm1.59375 -0.203125l0 0.203125q0 0.703125 0.15625 1.328125q0.171875 0.609375 0.5 1.09375q0.34375 0.46875 0.84375 0.75q0.5 0.265625 1.171875 0.265625q0.65625 0 1.15625 -0.265625q0.5 -0.28125 0.828125 -0.75q0.328125 -0.484375 0.484375 -1.09375q0.171875 -0.625 0.171875 -1.328125l0 -0.203125q0 -0.6875 -0.171875 -1.296875q-0.15625 -0.625 -0.5 -1.109375q-0.328125 -0.484375 -0.828125 -0.75q-0.5 -0.28125 -1.15625 -0.28125q-0.65625 0 -1.15625 0.28125q-0.5 0.265625 -0.84375 0.75q-0.328125 0.484375 -0.5 1.109375q-0.15625 0.609375 -0.15625 1.296875zm10.542725 -3.109375l0 7.890625l-1.609375 0l0 -9.359375l1.5625 0l0.046875 1.46875zm2.921875 -1.515625l-0.015625 1.484375q-0.203125 -0.046875 -0.375 -0.0625q-0.171875 -0.015625 -0.40625 -0.015625q-0.546875 0 -0.96875 0.1875q-0.421875 0.171875 -0.71875 0.484375q-0.296875 0.296875 -0.46875 0.734375q-0.171875 0.421875 -0.21875 0.9375l-0.453125 0.25q0 -0.84375 0.171875 -1.578125q0.171875 -0.75 0.515625 -1.328125q0.359375 -0.578125 0.90625 -0.890625q0.5625 -0.328125 1.3125 -0.328125q0.171875 0 0.390625 0.046875q0.234375 0.03125 0.328125 0.078125zm8.71188 7.96875l2.5625 -7.921875l1.640625 0l-3.375 9.359375l-1.0625 0l0.234375 -1.4375zm-2.140625 -7.921875l2.640625 7.953125l0.1875 1.40625l-1.078125 0l-3.390625 -9.359375l1.640625 0zm11.657501 9.53125q-0.984375 0 -1.78125 -0.328125q-0.78125 -0.34375 -1.359375 -0.9375q-0.5625 -0.609375 -0.875 -1.4375q-0.296875 -0.828125 -0.296875 -1.828125l0 -0.359375q0 -1.140625 0.34375 -2.03125q0.34375 -0.890625 0.921875 -1.515625q0.578125 -0.625 1.3125 -0.9375q0.734375 -0.328125 1.515625 -0.328125q1.015625 0 1.734375 0.34375q0.734375 0.34375 1.203125 0.96875q0.46875 0.609375 0.6875 1.453125q0.234375 0.828125 0.234375 1.8125l0 0.71875l-7.0 0l0 -1.296875l5.390625 0l0 -0.125q-0.03125 -0.625 -0.25 -1.203125q-0.21875 -0.59375 -0.703125 -0.96875q-0.46875 -0.390625 -1.296875 -0.390625q-0.53125 0 -1.0 0.234375q-0.453125 0.21875 -0.78125 0.671875q-0.328125 0.453125 -0.515625 1.109375q-0.1875 0.640625 -0.1875 1.484375l0 0.359375q0 0.671875 0.1875 1.265625q0.1875 0.578125 0.546875 1.015625q0.359375 0.4375 0.875 0.6875q0.515625 0.25 1.171875 0.25q0.84375 0 1.4375 -0.34375q0.59375 -0.34375 1.03125 -0.921875l0.96875 0.765625q-0.296875 0.46875 -0.765625 0.890625q-0.46875 0.40625 -1.15625 0.671875q-0.671875 0.25 -1.59375 0.25zm7.1145325 -8.0625l0 7.890625l-1.609375 0l0 -9.359375l1.5625 0l0.046875 1.46875zm2.921875 -1.515625l-0.015625 1.484375q-0.203125 -0.046875 -0.375 -0.0625q-0.171875 -0.015625 -0.40625 -0.015625q-0.546875 0 -0.96875 0.1875q-0.421875 0.171875 -0.71875 0.484375q-0.296875 0.296875 -0.46875 0.734375q-0.171875 0.421875 -0.21875 0.9375l-0.453125 0.25q0 -0.84375 0.171875 -1.578125q0.171875 -0.75 0.515625 -1.328125q0.359375 -0.578125 0.90625 -0.890625q0.5625 -0.328125 1.3125 -0.328125q0.171875 0 0.390625 0.046875q0.234375 0.03125 0.328125 0.078125zm6.926178 6.921875q0 -0.34375 -0.15625 -0.640625q-0.140625 -0.296875 -0.609375 -0.546875q-0.46875 -0.25 -1.390625 -0.421875q-0.78125 -0.171875 -1.40625 -0.390625q-0.625 -0.234375 -1.0625 -0.546875q-0.4375 -0.328125 -0.671875 -0.75q-0.234375 -0.4375 -0.234375 -1.015625q0 -0.5625 0.25 -1.046875q0.25 -0.5 0.703125 -0.875q0.453125 -0.390625 1.09375 -0.59375q0.640625 -0.21875 1.421875 -0.21875q1.125 0 1.921875 0.40625q0.796875 0.390625 1.21875 1.046875q0.421875 0.65625 0.421875 1.46875l-1.59375 0q0 -0.390625 -0.234375 -0.75q-0.234375 -0.375 -0.671875 -0.609375q-0.421875 -0.25 -1.0625 -0.25q-0.671875 0 -1.078125 0.203125q-0.40625 0.203125 -0.59375 0.515625q-0.1875 0.3125 -0.1875 0.65625q0 0.265625 0.09375 0.46875q0.09375 0.203125 0.328125 0.375q0.234375 0.15625 0.65625 0.3125q0.421875 0.140625 1.078125 0.28125q1.15625 0.265625 1.890625 0.640625q0.75 0.359375 1.109375 0.890625q0.359375 0.515625 0.359375 1.265625q0 0.625 -0.25 1.140625q-0.25 0.5 -0.734375 0.875q-0.484375 0.359375 -1.15625 0.5625q-0.65625 0.203125 -1.46875 0.203125q-1.234375 0 -2.09375 -0.4375q-0.859375 -0.4375 -1.296875 -1.140625q-0.4375 -0.703125 -0.4375 -1.484375l1.609375 0q0.03125 0.65625 0.375 1.046875q0.34375 0.375 0.84375 0.546875q0.5 0.15625 1.0 0.15625q0.65625 0 1.09375 -0.171875q0.453125 -0.171875 0.6875 -0.46875q0.234375 -0.3125 0.234375 -0.703125zm5.426132 -6.875l0 9.359375l-1.609375 0l0 -9.359375l1.609375 0zm-1.71875 -2.484375q0 -0.390625 0.234375 -0.65625q0.234375 -0.265625 0.703125 -0.265625q0.453125 0 0.703125 0.265625q0.25 0.265625 0.25 0.65625q0 0.375 -0.25 0.640625q-0.25 0.265625 -0.703125 0.265625q-0.46875 0 -0.703125 -0.265625q-0.234375 -0.265625 -0.234375 -0.640625zm3.8710632 7.265625l0 -0.203125q0 -1.0 0.296875 -1.875q0.296875 -0.875 0.84375 -1.515625q0.546875 -0.640625 1.328125 -1.0q0.796875 -0.359375 1.78125 -0.359375q0.984375 0 1.765625 0.359375q0.796875 0.359375 1.359375 1.0q0.5625 0.640625 0.84375 1.515625q0.296875 0.875 0.296875 1.875l0 0.203125q0 1.015625 -0.296875 1.890625q-0.28125 0.859375 -0.84375 1.5q-0.5625 0.640625 -1.34375 1.0q-0.78125 0.359375 -1.765625 0.359375q-0.984375 0 -1.78125 -0.359375q-0.78125 -0.359375 -1.34375 -1.0q-0.546875 -0.640625 -0.84375 -1.5q-0.296875 -0.875 -0.296875 -1.890625zm1.59375 -0.203125l0 0.203125q0 0.703125 0.15625 1.328125q0.171875 0.609375 0.5 1.09375q0.34375 0.46875 0.84375 0.75q0.5 0.265625 1.171875 0.265625q0.65625 0 1.15625 -0.265625q0.5 -0.28125 0.828125 -0.75q0.328125 -0.484375 0.484375 -1.09375q0.171875 -0.625 0.171875 -1.328125l0 -0.203125q0 -0.6875 -0.171875 -1.296875q-0.15625 -0.625 -0.5 -1.109375q-0.328125 -0.484375 -0.828125 -0.75q-0.5 -0.28125 -1.15625 -0.28125q-0.65625 0 -1.15625 0.28125q-0.5 0.265625 -0.84375 0.75q-0.328125 0.484375 -0.5 1.109375q-0.15625 0.609375 -0.15625 1.296875zm10.542725 -2.578125l0 7.359375l-1.609375 0l0 -9.359375l1.515625 0l0.09375 2.0zm-0.390625 2.328125l-0.65625 -0.03125q0 -0.953125 0.28125 -1.765625q0.28125 -0.828125 0.78125 -1.4375q0.5 -0.609375 1.1875 -0.9375q0.703125 -0.328125 1.546875 -0.328125q0.6875 0 1.234375 0.1875q0.5625 0.1875 0.953125 0.59375q0.40625 0.40625 0.609375 1.046875q0.203125 0.640625 0.203125 1.5625l0 6.140625l-1.609375 0l0 -6.15625q0 -0.734375 -0.21875 -1.171875q-0.203125 -0.453125 -0.625 -0.65625q-0.421875 -0.203125 -1.015625 -0.203125q-0.609375 0 -1.09375 0.25q-0.484375 0.25 -0.84375 0.703125q-0.34375 0.4375 -0.546875 1.0q-0.1875 0.5625 -0.1875 1.203125z" fill-rule="nonzero"/><path fill="#000000" fill-opacity="0.0" d="m38.185616 83.16757l150.29922 0l0 39.905518l-150.29922 0z" fill-rule="evenodd"/><path fill="#434343" d="m55.85749 96.59129l1.65625 0l0 8.515625q0 1.421875 -0.640625 2.375q-0.625 0.9375 -1.671875 1.40625q-1.03125 0.46875 -2.25 0.46875q-1.28125 0 -2.328125 -0.46875q-1.03125 -0.46875 -1.625 -1.40625q-0.59375 -0.953125 -0.59375 -2.375l0 -8.515625l1.640625 0l0 8.515625q0 0.984375 0.359375 1.625q0.375 0.640625 1.015625 0.953125q0.65625 0.3125 1.53125 0.3125q0.875 0 1.515625 -0.3125q0.65625 -0.3125 1.015625 -0.953125q0.375 -0.640625 0.375 -1.625l0 -8.515625zm5.645752 5.03125l0 11.15625l-1.609375 0l0 -12.953125l1.46875 0l0.140625 1.796875zm6.296875 2.796875l0 0.1875q0 1.015625 -0.25 1.890625q-0.234375 0.875 -0.703125 1.515625q-0.453125 0.640625 -1.125 1.0q-0.671875 0.34375 -1.546875 0.34375q-0.890625 0 -1.578125 -0.296875q-0.6875 -0.296875 -1.171875 -0.859375q-0.46875 -0.5625 -0.75 -1.34375q-0.28125 -0.78125 -0.375 -1.765625l0 -0.96875q0.09375 -1.046875 0.375 -1.859375q0.296875 -0.828125 0.765625 -1.40625q0.46875 -0.59375 1.140625 -0.890625q0.671875 -0.3125 1.5625 -0.3125q0.875 0 1.5625 0.34375q0.6875 0.34375 1.15625 0.96875q0.46875 0.625 0.703125 1.515625q0.234375 0.875 0.234375 1.9375zm-1.609375 0.1875l0 -0.1875q0 -0.6875 -0.15625 -1.3125q-0.140625 -0.625 -0.453125 -1.09375q-0.296875 -0.46875 -0.78125 -0.734375q-0.46875 -0.28125 -1.125 -0.28125q-0.609375 0 -1.0625 0.21875q-0.4375 0.203125 -0.75 0.5625q-0.3125 0.34375 -0.515625 0.796875q-0.1875 0.4375 -0.28125 0.90625l0 2.25q0.171875 0.59375 0.484375 1.125q0.3125 0.53125 0.828125 0.859375q0.53125 0.328125 1.3125 0.328125q0.65625 0 1.125 -0.265625q0.46875 -0.28125 0.765625 -0.75q0.3125 -0.484375 0.453125 -1.09375q0.15625 -0.625 0.15625 -1.328125zm9.715118 -4.78125l1.453125 0l0 9.15625q0 1.234375 -0.5 2.109375q-0.5 0.875 -1.40625 1.328125q-0.890625 0.453125 -2.046875 0.453125q-0.484375 0 -1.140625 -0.15625q-0.65625 -0.140625 -1.28125 -0.5q-0.625 -0.359375 -1.046875 -0.96875l0.828125 -0.953125q0.59375 0.71875 1.234375 0.984375q0.640625 0.28125 1.28125 0.28125q0.765625 0 1.3125 -0.28125q0.546875 -0.28125 0.859375 -0.84375q0.3125 -0.5625 0.3125 -1.375l0 -7.171875l0.140625 -2.0625zm-6.4375 4.78125l0 -0.1875q0 -1.0625 0.25 -1.9375q0.25 -0.890625 0.734375 -1.515625q0.484375 -0.625 1.15625 -0.96875q0.6875 -0.34375 1.546875 -0.34375q0.890625 0 1.546875 0.3125q0.65625 0.296875 1.125 0.890625q0.46875 0.578125 0.734375 1.40625q0.265625 0.8125 0.375 1.859375l0 0.78125q-0.109375 1.03125 -0.375 1.859375q-0.265625 0.828125 -0.734375 1.40625q-0.46875 0.578125 -1.140625 0.890625q-0.65625 0.296875 -1.546875 0.296875q-0.84375 0 -1.53125 -0.34375q-0.671875 -0.359375 -1.15625 -1.0q-0.484375 -0.640625 -0.734375 -1.515625q-0.25 -0.875 -0.25 -1.890625zm1.59375 -0.1875l0 0.1875q0 0.703125 0.140625 1.328125q0.140625 0.609375 0.4375 1.078125q0.3125 0.453125 0.765625 0.71875q0.46875 0.265625 1.125 0.265625q0.796875 0 1.3125 -0.328125q0.515625 -0.34375 0.828125 -0.890625q0.3125 -0.5625 0.484375 -1.203125l0 -2.09375q-0.09375 -0.46875 -0.296875 -0.90625q-0.1875 -0.453125 -0.5 -0.796875q-0.3125 -0.359375 -0.765625 -0.5625q-0.4375 -0.21875 -1.046875 -0.21875q-0.65625 0 -1.125 0.28125q-0.46875 0.265625 -0.78125 0.734375q-0.296875 0.46875 -0.4375 1.09375q-0.140625 0.625 -0.140625 1.3125zm10.340118 -3.125l0 7.890625l-1.609375 0l0 -9.359375l1.5625 0l0.046875 1.46875zm2.921875 -1.515625l-0.015625 1.484375q-0.203125 -0.046875 -0.375 -0.0625q-0.171875 -0.015625 -0.40625 -0.015625q-0.546875 0 -0.96875 0.1875q-0.421875 0.171875 -0.71875 0.484375q-0.296875 0.296875 -0.46875 0.734375q-0.171875 0.421875 -0.21875 0.9375l-0.453125 0.25q0 -0.84375 0.171875 -1.578125q0.171875 -0.75 0.515625 -1.328125q0.359375 -0.578125 0.90625 -0.890625q0.5625 -0.328125 1.3125 -0.328125q0.171875 0 0.390625 0.046875q0.234375 0.03125 0.328125 0.078125zm6.642456 7.8125l0 -4.828125q0 -0.546875 -0.21875 -0.953125q-0.21875 -0.421875 -0.65625 -0.640625q-0.4375 -0.234375 -1.09375 -0.234375q-0.609375 0 -1.0625 0.21875q-0.453125 0.203125 -0.703125 0.546875q-0.25 0.328125 -0.25 0.71875l-1.609375 0q0 -0.5 0.25 -0.984375q0.265625 -0.5 0.75 -0.90625q0.5 -0.40625 1.1875 -0.640625q0.6875 -0.234375 1.53125 -0.234375q1.03125 0 1.8125 0.34375q0.78125 0.34375 1.21875 1.046875q0.453125 0.6875 0.453125 1.734375l0 4.359375q0 0.46875 0.078125 1.0q0.078125 0.53125 0.25 0.90625l0 0.140625l-1.671875 0q-0.125 -0.28125 -0.203125 -0.734375q-0.0625 -0.46875 -0.0625 -0.859375zm0.28125 -4.078125l0.015625 1.125l-1.609375 0q-0.6875 0 -1.234375 0.109375q-0.53125 0.109375 -0.890625 0.328125q-0.359375 0.203125 -0.5625 0.53125q-0.1875 0.328125 -0.1875 0.75q0 0.453125 0.203125 0.8125q0.203125 0.359375 0.59375 0.578125q0.40625 0.203125 1.0 0.203125q0.734375 0 1.296875 -0.296875q0.5625 -0.3125 0.890625 -0.765625q0.34375 -0.453125 0.359375 -0.875l0.6875 0.765625q-0.0625 0.359375 -0.328125 0.8125q-0.265625 0.4375 -0.71875 0.84375q-0.4375 0.390625 -1.046875 0.65625q-0.609375 0.265625 -1.375 0.265625q-0.953125 0 -1.671875 -0.375q-0.703125 -0.375 -1.109375 -1.0q-0.390625 -0.625 -0.390625 -1.40625q0 -0.75 0.296875 -1.3125q0.296875 -0.578125 0.84375 -0.96875q0.5625 -0.390625 1.34375 -0.578125q0.78125 -0.203125 1.734375 -0.203125l1.859375 0zm9.747406 3.859375l0 -11.484375l1.609375 0l0 13.296875l-1.46875 0l-0.140625 -1.8125zm-6.296875 -2.765625l0 -0.1875q0 -1.0625 0.25 -1.9375q0.265625 -0.890625 0.75 -1.515625q0.5 -0.625 1.171875 -0.96875q0.6875 -0.34375 1.53125 -0.34375q0.875 0 1.53125 0.3125q0.671875 0.296875 1.125 0.890625q0.46875 0.578125 0.734375 1.40625q0.265625 0.8125 0.375 1.859375l0 0.78125q-0.09375 1.03125 -0.375 1.859375q-0.265625 0.828125 -0.734375 1.40625q-0.453125 0.578125 -1.125 0.890625q-0.65625 0.296875 -1.5625 0.296875q-0.8125 0 -1.5 -0.34375q-0.671875 -0.359375 -1.171875 -1.0q-0.484375 -0.640625 -0.75 -1.515625q-0.25 -0.875 -0.25 -1.890625zm1.609375 -0.1875l0 0.1875q0 0.703125 0.140625 1.328125q0.140625 0.609375 0.4375 1.078125q0.3125 0.453125 0.765625 0.71875q0.46875 0.265625 1.125 0.265625q0.796875 0 1.3125 -0.328125q0.515625 -0.34375 0.828125 -0.890625q0.3125 -0.5625 0.484375 -1.203125l0 -2.09375q-0.109375 -0.46875 -0.3125 -0.90625q-0.1875 -0.453125 -0.5 -0.796875q-0.296875 -0.359375 -0.75 -0.5625q-0.4375 -0.21875 -1.046875 -0.21875q-0.65625 0 -1.125 0.28125q-0.46875 0.265625 -0.78125 0.734375q-0.296875 0.46875 -0.4375 1.09375q-0.140625 0.625 -0.140625 1.3125zm12.664627 4.9375q-0.984375 0 -1.78125 -0.328125q-0.78125 -0.34375 -1.359375 -0.9375q-0.5625 -0.609375 -0.875 -1.4375q-0.296875 -0.828125 -0.296875 -1.828125l0 -0.359375q0 -1.140625 0.34375 -2.03125q0.34375 -0.890625 0.921875 -1.515625q0.578125 -0.625 1.3125 -0.9375q0.734375 -0.328125 1.515625 -0.328125q1.015625 0 1.734375 0.34375q0.734375 0.34375 1.203125 0.96875q0.46875 0.609375 0.6875 1.453125q0.234375 0.828125 0.234375 1.8125l0 0.71875l-7.0 0l0 -1.296875l5.390625 0l0 -0.125q-0.03125 -0.625 -0.25 -1.203125q-0.21875 -0.59375 -0.703125 -0.96875q-0.46875 -0.390625 -1.296875 -0.390625q-0.53125 0 -1.0 0.234375q-0.453125 0.21875 -0.78125 0.671875q-0.328125 0.453125 -0.515625 1.109375q-0.1875 0.640625 -0.1875 1.484375l0 0.359375q0 0.671875 0.1875 1.265625q0.1875 0.578125 0.546875 1.015625q0.359375 0.4375 0.875 0.6875q0.515625 0.25 1.171875 0.25q0.84375 0 1.4375 -0.34375q0.59375 -0.34375 1.03125 -0.921875l0.96875 0.765625q-0.296875 0.46875 -0.765625 0.890625q-0.46875 0.40625 -1.15625 0.671875q-0.671875 0.25 -1.59375 0.25zm11.509613 -7.53125l0 7.359375l-1.609375 0l0 -9.359375l1.515625 0l0.09375 2.0zm-0.390625 2.328125l-0.65625 -0.03125q0 -0.953125 0.28125 -1.765625q0.28125 -0.828125 0.78125 -1.4375q0.5 -0.609375 1.1875 -0.9375q0.703125 -0.328125 1.546875 -0.328125q0.6875 0 1.234375 0.1875q0.5625 0.1875 0.953125 0.59375q0.40625 0.40625 0.609375 1.046875q0.203125 0.640625 0.203125 1.5625l0 6.140625l-1.609375 0l0 -6.15625q0 -0.734375 -0.21875 -1.171875q-0.203125 -0.453125 -0.625 -0.65625q-0.421875 -0.203125 -1.015625 -0.203125q-0.609375 0 -1.09375 0.25q-0.484375 0.25 -0.84375 0.703125q-0.34375 0.4375 -0.546875 1.0q-0.1875 0.5625 -0.1875 1.203125zm14.300728 2.875l0 -7.203125l1.609375 0l0 9.359375l-1.53125 0l-0.078125 -2.15625zm0.296875 -1.984375l0.671875 -0.015625q0 0.9375 -0.203125 1.734375q-0.1875 0.78125 -0.625 1.375q-0.4375 0.578125 -1.140625 0.90625q-0.6875 0.3125 -1.703125 0.3125q-0.671875 0 -1.25 -0.1875q-0.5625 -0.203125 -0.96875 -0.625q-0.40625 -0.421875 -0.625 -1.078125q-0.21875 -0.671875 -0.21875 -1.609375l0 -6.03125l1.59375 0l0 6.046875q0 0.640625 0.140625 1.0625q0.15625 0.40625 0.390625 0.640625q0.25 0.234375 0.546875 0.328125q0.3125 0.09375 0.640625 0.09375q1.03125 0 1.625 -0.390625q0.59375 -0.390625 0.859375 -1.0625q0.265625 -0.671875 0.265625 -1.5zm5.330307 -3.359375l0 7.5l-1.609375 0l0 -9.359375l1.515625 0l0.09375 1.859375zm-0.328125 2.46875l-0.75 -0.03125q0.015625 -0.953125 0.25 -1.765625q0.25 -0.828125 0.71875 -1.4375q0.484375 -0.609375 1.1875 -0.9375q0.71875 -0.328125 1.640625 -0.328125q0.65625 0 1.203125 0.1875q0.5625 0.1875 0.96875 0.59375q0.40625 0.390625 0.625 1.015625q0.234375 0.609375 0.234375 1.5l0 6.234375l-1.59375 0l0 -6.15625q0 -0.734375 -0.25 -1.171875q-0.25 -0.453125 -0.703125 -0.65625q-0.4375 -0.203125 -1.046875 -0.203125q-0.71875 0 -1.1875 0.25q-0.46875 0.25 -0.765625 0.703125q-0.28125 0.4375 -0.40625 1.0q-0.125 0.5625 -0.125 1.203125zm6.0625 -0.890625l-1.078125 0.328125q0.015625 -0.765625 0.265625 -1.46875q0.25 -0.71875 0.71875 -1.265625q0.46875 -0.5625 1.15625 -0.875q0.6875 -0.328125 1.59375 -0.328125q0.75 0 1.328125 0.203125q0.578125 0.1875 0.984375 0.609375q0.40625 0.40625 0.609375 1.046875q0.203125 0.640625 0.203125 1.515625l0 6.15625l-1.59375 0l0 -6.171875q0 -0.78125 -0.25 -1.21875q-0.25 -0.4375 -0.703125 -0.609375q-0.4375 -0.1875 -1.046875 -0.1875q-0.53125 0 -0.9375 0.1875q-0.40625 0.171875 -0.6875 0.5q-0.28125 0.3125 -0.421875 0.71875q-0.140625 0.40625 -0.140625 0.859375zm8.210388 -7.375l1.609375 0l0 11.484375l-0.140625 1.8125l-1.46875 0l0 -13.296875zm7.921875 8.53125l0 0.1875q0 1.015625 -0.25 1.890625q-0.234375 0.875 -0.703125 1.515625q-0.46875 0.640625 -1.140625 1.0q-0.671875 0.34375 -1.546875 0.34375q-0.890625 0 -1.5625 -0.296875q-0.671875 -0.3125 -1.125 -0.890625q-0.453125 -0.578125 -0.734375 -1.40625q-0.265625 -0.828125 -0.375 -1.859375l0 -0.78125q0.109375 -1.046875 0.375 -1.859375q0.28125 -0.828125 0.734375 -1.40625q0.453125 -0.59375 1.125 -0.890625q0.671875 -0.3125 1.546875 -0.3125q0.890625 0 1.5625 0.34375q0.6875 0.34375 1.140625 0.96875q0.46875 0.625 0.703125 1.515625q0.25 0.875 0.25 1.9375zm-1.609375 0.1875l0 -0.1875q0 -0.6875 -0.125 -1.3125q-0.125 -0.625 -0.421875 -1.09375q-0.28125 -0.46875 -0.75 -0.734375q-0.46875 -0.28125 -1.140625 -0.28125q-0.609375 0 -1.0625 0.21875q-0.4375 0.203125 -0.75 0.5625q-0.3125 0.34375 -0.515625 0.796875q-0.1875 0.4375 -0.28125 0.90625l0 2.09375q0.140625 0.59375 0.453125 1.15625q0.3125 0.5625 0.84375 0.921875q0.53125 0.34375 1.328125 0.34375q0.640625 0 1.09375 -0.265625q0.46875 -0.265625 0.765625 -0.71875q0.296875 -0.46875 0.421875 -1.078125q0.140625 -0.625 0.140625 -1.328125zm7.5276184 4.75q-0.984375 0 -1.78125 -0.328125q-0.78125 -0.34375 -1.359375 -0.9375q-0.5625 -0.609375 -0.875 -1.4375q-0.296875 -0.828125 -0.296875 -1.828125l0 -0.359375q0 -1.140625 0.34375 -2.03125q0.34375 -0.890625 0.921875 -1.515625q0.578125 -0.625 1.3125 -0.9375q0.734375 -0.328125 1.515625 -0.328125q1.015625 0 1.734375 0.34375q0.734375 0.34375 1.203125 0.96875q0.46875 0.609375 0.6875 1.453125q0.234375 0.828125 0.234375 1.8125l0 0.71875l-7.0 0l0 -1.296875l5.390625 0l0 -0.125q-0.03125 -0.625 -0.25 -1.203125q-0.21875 -0.59375 -0.703125 -0.96875q-0.46875 -0.390625 -1.296875 -0.390625q-0.53125 0 -1.0 0.234375q-0.453125 0.21875 -0.78125 0.671875q-0.328125 0.453125 -0.515625 1.109375q-0.1875 0.640625 -0.1875 1.484375l0 0.359375q0 0.671875 0.1875 1.265625q0.1875 0.578125 0.546875 1.015625q0.359375 0.4375 0.875 0.6875q0.515625 0.25 1.171875 0.25q0.84375 0 1.4375 -0.34375q0.59375 -0.34375 1.03125 -0.921875l0.96875 0.765625q-0.296875 0.46875 -0.765625 0.890625q-0.46875 0.40625 -1.15625 0.671875q-0.671875 0.25 -1.59375 0.25zm7.1145325 -8.0625l0 7.890625l-1.609375 0l0 -9.359375l1.5625 0l0.046875 1.46875zm2.921875 -1.515625l-0.015625 1.484375q-0.203125 -0.046875 -0.375 -0.0625q-0.171875 -0.015625 -0.40625 -0.015625q-0.546875 0 -0.96875 0.1875q-0.421875 0.171875 -0.71875 0.484375q-0.296875 0.296875 -0.46875 0.734375q-0.171875 0.421875 -0.21875 0.9375l-0.453125 0.25q0 -0.84375 0.171875 -1.578125q0.171875 -0.75 0.515625 -1.328125q0.359375 -0.578125 0.90625 -0.890625q0.5625 -0.328125 1.3125 -0.328125q0.171875 0 0.390625 0.046875q0.234375 0.03125 0.328125 0.078125z" fill-rule="nonzero"/><path fill="#000000" fill-opacity="0.0" d="m69.20465 47.876434l106.708664 0l0 39.90551l-106.708664 0z" fill-rule="evenodd"/><path fill="#434343" d="m81.32965 61.300156l0 12.59375l-1.65625 0l0 -12.59375l1.65625 0zm5.28125 5.65625l0 1.375l-5.640625 0l0 -1.375l5.640625 0zm0.859375 -5.65625l0 1.359375l-6.5 0l0 -1.359375l6.5 0zm3.4812622 3.234375l0 9.359375l-1.609375 0l0 -9.359375l1.609375 0zm-1.71875 -2.484375q0 -0.390625 0.234375 -0.65625q0.234375 -0.265625 0.703125 -0.265625q0.453125 0 0.703125 0.265625q0.25 0.265625 0.25 0.65625q0 0.375 -0.25 0.640625q-0.25 0.265625 -0.703125 0.265625q-0.46875 0 -0.703125 -0.265625q-0.234375 -0.265625 -0.234375 -0.640625zm5.371063 2.484375l2.0625 3.40625l2.0625 -3.40625l1.890625 0l-3.0625 4.625l3.15625 4.734375l-1.859375 0l-2.15625 -3.515625l-2.171875 3.515625l-1.859375 0l3.15625 -4.734375l-3.0625 -4.625l1.84375 0zm13.716492 2.0l0 7.359375l-1.609375 0l0 -9.359375l1.515625 0l0.09375 2.0zm-0.390625 2.328125l-0.65625 -0.03125q0 -0.953125 0.28125 -1.765625q0.28125 -0.828125 0.78125 -1.4375q0.5 -0.609375 1.1875 -0.9375q0.703125 -0.328125 1.546875 -0.328125q0.6875 0 1.234375 0.1875q0.5625 0.1875 0.953125 0.59375q0.40625 0.40625 0.609375 1.046875q0.203125 0.640625 0.203125 1.5625l0 6.140625l-1.609375 0l0 -6.15625q0 -0.734375 -0.21875 -1.171875q-0.203125 -0.453125 -0.625 -0.65625q-0.421875 -0.203125 -1.015625 -0.203125q-0.609375 0 -1.09375 0.25q-0.484375 0.25 -0.84375 0.703125q-0.34375 0.4375 -0.546875 1.0q-0.1875 0.5625 -0.1875 1.203125zm14.300735 2.875l0 -7.203125l1.609375 0l0 9.359375l-1.53125 0l-0.078125 -2.15625zm0.296875 -1.984375l0.671875 -0.015625q0 0.9375 -0.203125 1.734375q-0.1875 0.78125 -0.625 1.375q-0.4375 0.578125 -1.140625 0.90625q-0.6875 0.3125 -1.703125 0.3125q-0.671875 0 -1.25 -0.1875q-0.5625 -0.203125 -0.96875 -0.625q-0.40625 -0.421875 -0.625 -1.078125q-0.21875 -0.671875 -0.21875 -1.609375l0 -6.03125l1.59375 0l0 6.046875q0 0.640625 0.140625 1.0625q0.15625 0.40625 0.390625 0.640625q0.25 0.234375 0.546875 0.328125q0.3125 0.09375 0.640625 0.09375q1.03125 0 1.625 -0.390625q0.59375 -0.390625 0.859375 -1.0625q0.265625 -0.671875 0.265625 -1.5zm5.330307 -3.359375l0 7.5l-1.609375 0l0 -9.359375l1.515625 0l0.09375 1.859375zm-0.328125 2.46875l-0.75 -0.03125q0.015625 -0.953125 0.25 -1.765625q0.25 -0.828125 0.71875 -1.4375q0.484375 -0.609375 1.1875 -0.9375q0.71875 -0.328125 1.640625 -0.328125q0.65625 0 1.203125 0.1875q0.5625 0.1875 0.96875 0.59375q0.40625 0.390625 0.625 1.015625q0.234375 0.609375 0.234375 1.5l0 6.234375l-1.59375 0l0 -6.15625q0 -0.734375 -0.25 -1.171875q-0.25 -0.453125 -0.703125 -0.65625q-0.4375 -0.203125 -1.046875 -0.203125q-0.71875 0 -1.1875 0.25q-0.46875 0.25 -0.765625 0.703125q-0.28125 0.4375 -0.40625 1.0q-0.125 0.5625 -0.125 1.203125zm6.0625 -0.890625l-1.078125 0.328125q0.015625 -0.765625 0.265625 -1.46875q0.25 -0.71875 0.71875 -1.265625q0.46875 -0.5625 1.15625 -0.875q0.6875 -0.328125 1.59375 -0.328125q0.75 0 1.328125 0.203125q0.578125 0.1875 0.984375 0.609375q0.40625 0.40625 0.609375 1.046875q0.203125 0.640625 0.203125 1.515625l0 6.15625l-1.59375 0l0 -6.171875q0 -0.78125 -0.25 -1.21875q-0.25 -0.4375 -0.703125 -0.609375q-0.4375 -0.1875 -1.046875 -0.1875q-0.53125 0 -0.9375 0.1875q-0.40625 0.171875 -0.6875 0.5q-0.28125 0.3125 -0.421875 0.71875q-0.140625 0.40625 -0.140625 0.859375zm8.210388 -7.375l1.609375 0l0 11.484375l-0.140625 1.8125l-1.46875 0l0 -13.296875zm7.921875 8.53125l0 0.1875q0 1.015625 -0.25 1.890625q-0.234375 0.875 -0.703125 1.515625q-0.46875 0.640625 -1.140625 1.0q-0.671875 0.34375 -1.546875 0.34375q-0.890625 0 -1.5625 -0.296875q-0.671875 -0.3125 -1.125 -0.890625q-0.453125 -0.578125 -0.734375 -1.40625q-0.265625 -0.828125 -0.375 -1.859375l0 -0.78125q0.109375 -1.046875 0.375 -1.859375q0.28125 -0.828125 0.734375 -1.40625q0.453125 -0.59375 1.125 -0.890625q0.671875 -0.3125 1.546875 -0.3125q0.890625 0 1.5625 0.34375q0.6875 0.34375 1.140625 0.96875q0.46875 0.625 0.703125 1.515625q0.25 0.875 0.25 1.9375zm-1.609375 0.1875l0 -0.1875q0 -0.6875 -0.125 -1.3125q-0.125 -0.625 -0.421875 -1.09375q-0.28125 -0.46875 -0.75 -0.734375q-0.46875 -0.28125 -1.140625 -0.28125q-0.609375 0 -1.0625 0.21875q-0.4375 0.203125 -0.75 0.5625q-0.3125 0.34375 -0.515625 0.796875q-0.1875 0.4375 -0.28125 0.90625l0 2.09375q0.140625 0.59375 0.453125 1.15625q0.3125 0.5625 0.84375 0.921875q0.53125 0.34375 1.328125 0.34375q0.640625 0 1.09375 -0.265625q0.46875 -0.265625 0.765625 -0.71875q0.296875 -0.46875 0.421875 -1.078125q0.140625 -0.625 0.140625 -1.328125zm7.5276184 4.75q-0.984375 0 -1.78125 -0.328125q-0.78125 -0.34375 -1.359375 -0.9375q-0.5625 -0.609375 -0.875 -1.4375q-0.296875 -0.828125 -0.296875 -1.828125l0 -0.359375q0 -1.140625 0.34375 -2.03125q0.34375 -0.890625 0.921875 -1.515625q0.578125 -0.625 1.3125 -0.9375q0.734375 -0.328125 1.515625 -0.328125q1.015625 0 1.734375 0.34375q0.734375 0.34375 1.203125 0.96875q0.46875 0.609375 0.6875 1.453125q0.234375 0.828125 0.234375 1.8125l0 0.71875l-7.0 0l0 -1.296875l5.390625 0l0 -0.125q-0.03125 -0.625 -0.25 -1.203125q-0.21875 -0.59375 -0.703125 -0.96875q-0.46875 -0.390625 -1.296875 -0.390625q-0.53125 0 -1.0 0.234375q-0.453125 0.21875 -0.78125 0.671875q-0.328125 0.453125 -0.515625 1.109375q-0.1875 0.640625 -0.1875 1.484375l0 0.359375q0 0.671875 0.1875 1.265625q0.1875 0.578125 0.546875 1.015625q0.359375 0.4375 0.875 0.6875q0.515625 0.25 1.171875 0.25q0.84375 0 1.4375 -0.34375q0.59375 -0.34375 1.03125 -0.921875l0.96875 0.765625q-0.296875 0.46875 -0.765625 0.890625q-0.46875 0.40625 -1.15625 0.671875q-0.671875 0.25 -1.59375 0.25zm7.1145325 -8.0625l0 7.890625l-1.609375 0l0 -9.359375l1.5625 0l0.046875 1.46875zm2.921875 -1.515625l-0.015625 1.484375q-0.203125 -0.046875 -0.375 -0.0625q-0.171875 -0.015625 -0.40625 -0.015625q-0.546875 0 -0.96875 0.1875q-0.421875 0.171875 -0.71875 0.484375q-0.296875 0.296875 -0.46875 0.734375q-0.171875 0.421875 -0.21875 0.9375l-0.453125 0.25q0 -0.84375 0.171875 -1.578125q0.171875 -0.75 0.515625 -1.328125q0.359375 -0.578125 0.90625 -0.890625q0.5625 -0.328125 1.3125 -0.328125q0.171875 0 0.390625 0.046875q0.234375 0.03125 0.328125 0.078125z" fill-rule="nonzero"/><path fill="#000000" fill-opacity="0.0" d="m21.782808 29.685007l-0.34645653 92.944885" fill-rule="evenodd"/><path stroke="#666666" stroke-width="0.9501312335958005" stroke-linejoin="round" stroke-linecap="butt" d="m21.782808 29.685009l-0.32520676 87.24414" fill-rule="evenodd"/><path fill="#666666" stroke="#666666" stroke-width="0.9501312335958005" stroke-linecap="butt" d="m19.88825 116.923294l1.553278 4.317604l1.5854244 -4.305908z" fill-rule="evenodd"/><path fill="#000000" fill-opacity="0.0" d="m51.43534 29.685007l-0.34645462 58.14173" fill-rule="evenodd"/><path stroke="#666666" stroke-width="0.9501312335958005" stroke-linejoin="round" stroke-linecap="butt" d="m51.43534 29.685009l-0.31248856 52.441044" fill-rule="evenodd"/><path fill="#666666" stroke="#666666" stroke-width="0.9501312335958005" stroke-linecap="butt" d="m49.55352 82.11671l1.5436401 4.32106l1.5950279 -4.3023605z" fill-rule="evenodd"/><path fill="#000000" fill-opacity="0.0" d="m81.87332 29.685007l-0.34645844 24.661417" fill-rule="evenodd"/><path stroke="#666666" stroke-width="0.9501312335958005" stroke-linejoin="round" stroke-linecap="butt" d="m81.87332 29.685009l-0.2663803 18.961193" fill-rule="evenodd"/><path fill="#666666" stroke="#666666" stroke-width="0.9501312335958005" stroke-linecap="butt" d="m80.037735 48.624157l1.5086365 4.3334084l1.629776 -4.289318z" fill-rule="evenodd"/></g></svg>